<svg xmlns="http://www.w3.org/2000/svg" width="180" height="240" viewBox="0 0 180 240" role="img" aria-labelledby="title description" data-asset-status="sample" data-asset-version="review-v1">
  <title id="title">Curly dark illustrated child — sample artwork</title>
  <desc id="description">Handcrafted SVG local-review fixture, not final Soft 3D illustration or print-ready artwork. Full-body character with curly hair, a teal hoodie, navy trousers, and cream sneakers on a transparent background. Character ID: warm-curly-dark.</desc>
  <!-- SAMPLE / LOCAL REVIEW ONLY. Deliberately simple vector fixture; replace with approved production art. -->
  <g fill="#291a14"><path d="M49 78C31 51 48 17 83 14c31-9 65 19 54 57l-8 29H52Z"/></g>
  <g stroke="#153f49" stroke-width="2" stroke-linejoin="round">
    <path d="M69 166 66 210c0 7 14 9 18 2l7-38 6 38c4 7 19 5 18-2l-4-44Z" fill="#294653"/>
    <path d="m65 206-8 13c-3 7 0 11 7 11h20v-21Z" fill="#fff0d6"/>
    <path d="m97 209-1 21h23c8 0 9-6 4-11l-11-13Z" fill="#fff0d6"/>
    <path d="M59 224h24m15 0h22m-54-9h9m28 0h9" fill="none" stroke-width="2.5"/>
    <path d="M66 110c-11 3-16 13-20 23l-9 20 12 7 19-32m44-18c12 3 16 15 20 25l8 18-13 6-17-31" fill="#41a89b"/>
  </g>
  <g fill="#965c40" stroke="#614235" stroke-width="1.5">
    <path d="m37 150-6 11c-3 6 0 11 6 11 6 0 11-6 13-14Z"/>
    <path d="m139 149 7 11c3 6 0 11-6 11-7 0-12-6-14-13Z"/>
    <path d="M79 93v21c5 8 18 8 23 0V93Z"/>
  </g>
  <path d="M66 108 79 104c5 11 17 11 24 0l13 6 4 62c-16 9-41 9-60 0Z" fill="#53b3a3" stroke="#215b59" stroke-width="2" stroke-linejoin="round"/>
  <path d="M77 107q13 16 29 0M77 120v15m27-15v15M76 148h28v13H76Z" fill="none" stroke="#277f78" stroke-width="2.5" stroke-linecap="round"/>
  <path d="M63 167q27 9 54 0" fill="none" stroke="#8ed4bd" stroke-width="4"/>
  <g fill="#965c40">
    <ellipse cx="53" cy="67" rx="7" ry="10"/><ellipse cx="127" cy="67" rx="7" ry="10"/>
    <path d="M54 56c0-25 17-33 36-33s36 11 36 33v16c-2 23-18 35-36 35S56 93 54 72Z"/>
  </g>
  <g fill="#291a14"><path d="M52 55c1-29 27-42 52-33 20 5 29 18 26 39l-12-22c-13 10-29 9-44 3L60 64Z"/><circle cx="49" cy="48" r="12"/><circle cx="54" cy="30" r="13"/><circle cx="69" cy="20" r="13"/><circle cx="87" cy="18" r="13"/><circle cx="105" cy="21" r="14"/><circle cx="123" cy="32" r="14"/><circle cx="133" cy="49" r="11"/></g>
  <g fill="#282a2c"><ellipse cx="76" cy="69" rx="3.2" ry="4"/><ellipse cx="105" cy="69" rx="3.2" ry="4"/></g>
  <g fill="white"><circle cx="77" cy="68" r="1"/><circle cx="106" cy="68" r="1"/></g>
  <path d="M88 72v6h4" fill="none" stroke="#614235" stroke-width="1.5" stroke-linecap="round" opacity=".65"/>
  <path d="M81 85q10 9 20 0" fill="none" stroke="#663d35" stroke-width="2.2" stroke-linecap="round"/>
  <g fill="#de826a" opacity=".25"><ellipse cx="67" cy="81" rx="7" ry="4"/><ellipse cx="113" cy="81" rx="7" ry="4"/></g>
</svg>
